<svg width="48" height="44" viewBox="0 0 48 44" fill="none" xmlns="http://www.w3.org/2000/svg">
<rect width="48" height="44" fill="#323238"/>
<path d="M36.1462 22.067C36.1462 15.9542 30.7416 11 24.0731 11C17.4046 11 12 15.9542 12 22.067C12 27.5919 16.4142 32.17 22.1867 33V25.2661H19.1212V22.067H22.1867V19.6288C22.1867 16.8556 23.9882 15.323 26.7471 15.323C28.0676 15.323 29.4494 15.5392 29.4494 15.5392V18.2627H27.9261C26.4264 18.2627 25.9595 19.1165 25.9595 19.9919V22.067H29.3079L28.7726 25.2661H25.9595V33C31.732 32.17 36.1462 27.5919 36.1462 22.067Z" fill="white"/>
</svg>
