<svg width="48" height="44" viewBox="0 0 48 44" fill="none" xmlns="http://www.w3.org/2000/svg">
<rect width="48" height="44" fill="#323238"/>
<g clip-path="url(#clip0_61385:216)">
<path d="M22.724 32.9999C21.617 32.9999 20.324 32.9944 19.048 32.9275C17.1811 32.966 15.3729 32.3279 14.016 31.1519C12.7328 29.9085 12.0367 28.2513 12.079 26.5401C12 25.2174 12 23.88 12 22.5865C12 22.391 12 22.1954 12 21.9999C12 21.8043 12 21.6088 12 21.4132C12 20.1198 12 18.7824 12.079 17.4605C12.037 15.7492 12.733 14.0917 14.016 12.8479C15.3729 11.6718 17.1811 11.0338 19.048 11.0723C20.328 11.0054 21.617 10.9999 22.724 10.9999H25.277C26.384 10.9999 27.677 11.0054 28.954 11.0723C30.8207 11.0335 32.6286 11.6716 33.985 12.8479C35.268 14.0917 35.964 15.7492 35.922 17.4605C36 18.7824 36 20.1198 36 21.4141C36 21.6097 36 21.8052 36 22.0008C36 22.1963 36 22.3916 36 22.5865C36 23.88 36 25.2174 35.921 26.541C35.9633 28.2522 35.2672 29.9095 33.984 31.1528C32.6276 32.3291 30.8197 32.9671 28.953 32.9284C27.672 32.9953 26.383 33.0008 25.276 33.0008L22.724 32.9999Z" fill="white"/>
<path d="M29.6061 17.2228C29.8426 17.3676 30.1206 17.4449 30.405 17.4449L30.406 17.4458C30.7873 17.4454 31.1528 17.3062 31.4223 17.0588C31.6917 16.8115 31.843 16.4763 31.843 16.1268C31.843 15.8661 31.7587 15.6112 31.6007 15.3944C31.4427 15.1777 31.2181 15.0087 30.9553 14.9089C30.6926 14.8092 30.4034 14.7831 30.1245 14.8339C29.8456 14.8848 29.5893 15.0103 29.3882 15.1947C29.1871 15.379 29.0502 15.6139 28.9947 15.8696C28.9392 16.1253 28.9677 16.3903 29.0765 16.6312C29.1853 16.8721 29.3697 17.0779 29.6061 17.2228Z" fill="#323238"/>
<path fill-rule="evenodd" clip-rule="evenodd" d="M24.0003 27.6426C22.7828 27.6424 21.5927 27.3113 20.5805 26.6911C19.5683 26.0709 18.7794 25.1896 18.3137 24.1584C17.8479 23.1273 17.7261 21.9927 17.9637 20.8981C18.2014 19.8035 18.7878 18.7981 19.6487 18.009C20.5097 17.2199 21.6066 16.6826 22.8007 16.4649C23.9949 16.2473 25.2326 16.3591 26.3574 16.7862C27.4822 17.2133 28.4436 17.9366 29.1199 18.8646C29.7963 19.7925 30.1573 20.8835 30.1573 21.9996C30.1558 23.496 29.5066 24.9307 28.3522 25.9888C27.1979 27.0469 25.6328 27.6411 24.0003 27.6426ZM24.0003 18.3334C23.2092 18.3334 22.4358 18.5484 21.778 18.9513C21.1202 19.3542 20.6075 19.9269 20.3048 20.5969C20.002 21.2669 19.9228 22.0041 20.0771 22.7154C20.2315 23.4266 20.6124 24.08 21.1719 24.5928C21.7313 25.1056 22.444 25.4548 23.2199 25.5963C23.9958 25.7377 24.8001 25.6651 25.531 25.3876C26.2619 25.1101 26.8866 24.6401 27.3262 24.0371C27.7657 23.4342 28.0003 22.7252 28.0003 22.0001C28.0003 21.0276 27.5789 20.095 26.8287 19.4073C26.0786 18.7197 25.0612 18.3334 24.0003 18.3334Z" fill="#323238"/>
</g>
<defs>
<clipPath id="clip0_61385:216">
<rect width="24" height="22" fill="white" transform="translate(12 10.9999)"/>
</clipPath>
</defs>
</svg>
