<svg width="48" height="44" viewBox="0 0 48 44" fill="none" xmlns="http://www.w3.org/2000/svg">
<rect width="48" height="44" fill="#323238"/>
<g clip-path="url(#clip0_61385:205)">
<path d="M36.6849 15.4415C35.7603 15.7995 34.7804 16.0356 33.7769 16.1423C34.8352 15.5872 35.627 14.714 36.0048 13.6853C35.0115 14.2051 33.9234 14.5709 32.7882 14.7667C32.0948 14.1145 31.1931 13.6605 30.2007 13.4641C29.2084 13.2676 28.1715 13.3378 27.2254 13.6654C26.2792 13.993 25.4677 14.5629 24.8968 15.3006C24.3259 16.0384 24.022 16.9098 24.0248 17.8011C24.0229 18.1422 24.0668 18.4823 24.1556 18.8144C22.1396 18.7269 20.1674 18.2678 18.3677 17.4671C16.5679 16.6664 14.9812 15.5421 13.7111 14.1676C13.0631 15.1461 12.8653 16.3043 13.1579 17.4061C13.4505 18.508 14.2116 19.4707 15.2861 20.0981C14.4786 20.0806 13.6882 19.8901 12.9841 19.5433V19.5985C12.9836 20.6245 13.3885 21.619 14.1302 22.4131C14.8718 23.2072 15.9043 23.7518 17.0523 23.9544C16.6174 24.0577 16.1687 24.1101 15.7181 24.1101C15.3985 24.1107 15.0797 24.0831 14.7664 24.0279C15.09 24.9104 15.7204 25.6821 16.5694 26.2351C17.4184 26.7881 18.4434 27.0948 19.5012 27.1121C17.7065 28.3481 15.489 29.0182 13.2063 29.0143C12.8024 29.0139 12.3989 28.9926 11.9979 28.9505C14.3045 30.2655 16.9986 30.963 19.7505 30.9576C21.6488 30.9693 23.5308 30.6502 25.2871 30.019C27.0434 29.3877 28.639 28.4569 29.9811 27.2807C31.3232 26.1044 32.385 24.7061 33.1049 23.1671C33.8248 21.6281 34.1883 19.9791 34.1743 18.3159C34.1743 18.1234 34.1743 17.9309 34.1583 17.7427C35.1498 17.1132 36.0053 16.3339 36.6849 15.4415V15.4415Z" fill="white"/>
</g>
<defs>
<clipPath id="clip0_61385:205">
<rect width="24.6857" height="17.6" fill="white" transform="translate(12 13.3569)"/>
</clipPath>
</defs>
</svg>
