<svg width="48" height="44" viewBox="0 0 48 44" fill="none" xmlns="http://www.w3.org/2000/svg">
<rect width="48" height="44" fill="#323238"/>
<g clip-path="url(#clip0_61385:212)">
<path d="M36.5252 17.2433C36.5698 16.3006 36.219 15.3796 35.5499 14.6825C34.8809 13.9853 33.9481 13.5688 32.9564 13.5245C30.2851 13.4055 27.5608 13.3569 24.7784 13.3569H23.9108C21.1337 13.3569 18.4042 13.403 15.7328 13.5245C14.7408 13.5718 13.809 13.9906 13.141 14.6892C12.473 15.3879 12.1233 16.3095 12.1684 17.2525C12.0485 18.8873 11.9947 20.5154 12 22.1477C12.0053 23.78 12.0485 25.4106 12.164 27.0471C12.117 27.9916 12.4655 28.9152 13.1334 29.616C13.8013 30.3167 14.734 30.7374 15.7275 30.786C18.5338 30.91 21.4132 30.9645 24.3402 30.9603C27.2719 30.9692 30.1428 30.9111 32.9529 30.786C33.9464 30.7382 34.8796 30.3184 35.5483 29.6183C36.2169 28.9183 36.5666 27.995 36.5208 27.0505C36.6363 25.414 36.6892 23.7825 36.6848 22.1469C36.6942 20.5123 36.641 18.8778 36.5252 17.2433ZM21.9783 26.6432V17.6379L28.9705 22.1385L21.9783 26.6432Z" fill="white"/>
</g>
<defs>
<clipPath id="clip0_61385:212">
<rect width="24.6857" height="17.6" fill="white" transform="translate(12 13.3569)"/>
</clipPath>
</defs>
</svg>
